<?xml version="1.0" encoding="UTF-8"?>
<svg width="200px" height="200px" viewBox="0 0 143 130" version="1.1" xmlns="http://www.w3.org/2000/svg" xmlns:xlink="http://www.w3.org/1999/xlink">
    <!-- Generator: Sketch 52.5 (67469) - http://www.bohemiancoding.com/sketch -->
    <title>Product/AgentCall/Color/3x</title>
    <desc>Created with Sketch.</desc>
    <g id="Product/AgentCall/Color/3x" stroke="none" stroke-width="1" fill="none" fill-rule="evenodd">
        <g id="ic_agent">
            <path d="M134.611648,62.5431463 L127.630292,62.5431463 L127.630292,54.9790576 C127.127892,24.4697509 102.230446,-5.37460829e-15 71.6902809,0 C41.1501159,4.03095622e-15 16.2526696,24.4697509 15.7502698,54.9790576 L15.7502698,62.5431463 L8.38835193,62.5431463 C3.75904937,62.5514726 0.00833359821,66.2989057 0,70.9241566 L0,87.4925609 C0.00833359821,92.1178118 3.75904937,95.8652449 8.38835193,95.8735712 L22.6471257,95.8735712 C23.1299804,95.8735712 23.5214115,95.4821402 23.5214115,94.9992855 L23.5214115,54.9790576 C23.5214119,27.5661005 44.2457398,6.84918947 71.6827102,6.84918947 C99.1196807,6.84918947 120.266478,27.5661005 120.266478,54.9790576 L120.266478,95.2715927 C120.266478,95.7544474 120.657909,96.1458784 121.140764,96.1458784 L127.024635,96.1458784 C124.339278,108.864868 111.731391,115.044185 96.0270674,117.787048 C96.9912685,117.163884 98.4379998,115.92151 100.367261,114.059926 C109.189727,103.922854 108.20957,90.839143 108.686335,77.0208121 C109.096368,77.0952985 110.844419,77.1010197 113.930486,77.0379759 L113.930485,77.0379296 C114.382471,77.0286962 114.752866,76.6763887 114.784699,76.2254312 L115.094554,71.8356272 C115.128553,71.3539806 114.765663,70.9359671 114.284017,70.9019681 C114.273425,70.9012205 114.262821,70.9006658 114.25221,70.9003045 C100.471999,70.4310483 88.2672094,65.123966 77.6378421,54.9790576 C66.9670097,44.7945739 59.4948716,32.2952143 55.2214278,17.4809787 L55.2214229,17.4809801 C55.0925103,17.0340941 54.6362817,16.7663667 54.1832732,16.8717654 L49.1344546,18.0464271 C48.6641525,18.1558494 48.3716017,18.6258089 48.4810241,19.096111 C48.4853774,19.1148218 48.4903462,19.1333841 48.4959225,19.1517676 C49.5036585,22.4740152 50.3634259,25.0117616 51.0752247,26.7650067 C34.5105009,35.3124269 29.6508389,53.6326498 29.6508389,74.282612 C29.6508389,101.392306 42.4143271,123.76688 65.8986842,126.459696 C66.3746816,126.515647 67.2250974,126.57269 67.3784224,126.596089 C67.5567507,126.623305 67.8371182,126.623429 67.8378515,126.625158 C68.1479224,127.356399 68.3957317,127.778113 68.8420892,128.26999 C69.7663128,129.288466 71.1501718,130 72.8763746,130 L84.1008664,130 C86.8760638,130.000529 89.0001666,128.796118 89.0001666,125.748448 C111.061229,124.038964 131.73377,114.118153 134.126116,95.8735712 C141.92721,96.1458784 143,91.5785756 143,87.7648681 L143,70.9241566 C142.991666,66.2989057 139.240951,62.5514726 134.611648,62.5431463 Z M7.06001204,72.2064644 C7.06001204,71.0284007 8.01585793,70.0733913 9.19495359,70.0733913 L15.7502698,70.0733913 L15.7502698,88.5847142 L9.17981216,88.5847142 C8.00663388,88.5764009 7.05998253,87.6238222 7.06001204,86.4516412 L7.06001204,72.2064644 Z M101.685539,75.7803016 C101.493793,88.6734794 102.196089,100.970187 97.0384987,107.310282 C93.6001052,111.537013 90.8079791,114.196704 88.6621203,115.289355 C88.6185578,114.824422 88.3005216,114.329622 87.7080118,113.804955 C86.8192469,113.017954 85.7724441,112.767821 84.1008664,112.767821 L72.8763746,112.767821 C70.0952377,112.771594 67.5491,114.664956 67.5491,117.787048 C67.5491,118.614418 67.5491,118.86215 67.5491,119.911568 C46.7447759,118.111315 36.8358418,98.5633368 36.8358418,74.282612 C36.8358418,56.4918753 39.5071726,41.5731904 53.5129949,34.0091017 C60.5840424,48.4262548 70.5684395,67.7695859 101.685539,75.7803016 Z M72.8763746,125.063005 L72.8763746,117.787048 L84.1008664,117.787048 L84.1008664,125.063005 L72.8763746,125.063005 Z M136.261058,72.2064644 L136.261058,86.4516412 C136.261058,87.6297049 135.305212,88.5847142 134.126116,88.5847142 L127.630292,88.5847142 L127.630292,70.0733913 L134.126116,70.0733913 C135.305212,70.0733913 136.261058,71.0284007 136.261058,72.2064644 Z" id="Shape" fill="#2B2727" fill-rule="nonzero"/>
            <path d="M57.6360546,95.8536776 C60.2285326,100.501708 64.8234813,102.825723 71.4209006,102.825723 C78.0251016,102.825723 82.6005949,100.496927 85.1473804,95.8393368 L85.1473894,95.8393417 C85.4253741,95.33096 86.0628501,95.1441864 86.5712318,95.4221711 C86.5762618,95.4249215 86.5812692,95.4277131 86.5862535,95.4305457 L90.227668,97.4999165 C90.7012535,97.7690515 90.8900978,98.3558505 90.6623727,98.850682 C87.5485131,105.616894 81.1346891,109 71.4209006,109 C61.6912715,109 55.3481967,105.605851 52.3916761,98.8175531 L52.3916539,98.8175628 C52.1817121,98.3355275 52.3609816,97.7725325 52.8109902,97.5006394 L56.1772217,95.4667543 C56.6731643,95.167108 57.3181165,95.3262377 57.6177628,95.8221804 C57.6240418,95.8325728 57.63014,95.8430734 57.6360546,95.8536776 Z" id="Rectangle-3" fill="#FF700A"/>
        </g>
    </g>
</svg>