<?xml version="1.0" encoding="UTF-8"?>
<svg width="36px" height="40px" viewBox="0 0 36 40" version="1.1" xmlns="http://www.w3.org/2000/svg" xmlns:xlink="http://www.w3.org/1999/xlink">
    <!-- Generator: Sketch 51.2 (57519) - http://www.bohemiancoding.com/sketch -->
    <title>lock-orange</title>
    <desc>Created with Sketch.</desc>
    <defs/>
    <g id="lock-orange" stroke="none" stroke-width="1" fill="none" fill-rule="evenodd">
        <path d="M2.61238751,37.2280111 L2.61238751,19.3752857 L33.0907643,19.3752857 L33.0928072,37.2280111 L2.61238751,37.2280111 Z M7.64754785,12.8174083 C7.64754785,7.1901005 12.2255221,2.61249201 17.8524641,2.61249201 C23.4794062,2.61249201 28.0573804,7.19046625 28.0573804,12.8174083 L28.0573804,16.7626892 L7.64754785,16.7626892 L7.64754785,12.8174083 Z M33.0906075,16.7626892 L30.6699769,16.7626892 L30.6699769,12.8174083 C30.6699769,5.7516624 24.9183145,0 17.8525686,0 C10.7847328,0 5.03516035,5.7516624 5.03516035,12.8174083 L5.03516035,16.7626892 L2.61249201,16.7626892 C1.17154592,16.7626892 0,17.9342351 0,19.3751812 L0,37.2279066 C0,38.6688527 1.17154592,39.8403986 2.61249201,39.8403986 L33.0908688,39.8403986 C34.5318149,39.8403986 35.7033608,38.6688527 35.7033608,37.2279066 L35.7033608,19.3751812 C35.7033608,17.9342351 34.5318149,16.7626892 33.0908688,16.7626892 L33.0906075,16.7626892 Z" id="Page-1" stroke="#FFFFFF" stroke-width="0.5" fill="#2B2727" fill-rule="nonzero"/>
        <path d="M17.8516804,21.5529546 C20.3947846,21.5529546 22.4643485,23.6225185 22.4643485,26.1656227 C22.4643485,28.2515408 21.0621718,29.998671 19.1579264,30.5680897 L19.1579264,32.9826071 C19.1579264,33.7051179 18.5741912,34.2888531 17.8516804,34.2888531 C17.1291696,34.2888531 16.5454344,33.7051179 16.5454344,32.9826071 L16.5454344,30.5680897 C14.641189,29.9986187 13.2390122,28.2515408 13.2390122,26.1656227 C13.2390122,23.6225185 15.3085762,21.5529546 17.8516804,21.5529546 Z M17.8516804,28.1656943 C18.9537863,28.1656943 19.8518565,27.2697141 19.8518565,26.1655182 C19.8518565,25.0613223 18.9538385,24.1653421 17.8516804,24.1653421 C16.7474845,24.1653421 15.8515043,25.0613223 15.8515043,26.1655182 C15.8515043,27.2697141 16.7474845,28.1656943 17.8516804,28.1656943 Z" id="Combined-Shape" stroke="#FFFFFF" stroke-width="0.5" fill="#FF700A" fill-rule="nonzero"/>
    </g>
</svg>