<?xml version="1.0" encoding="UTF-8"?>
<svg width="136px" height="132px" viewBox="0 0 136 132" version="1.1" xmlns="http://www.w3.org/2000/svg" xmlns:xlink="http://www.w3.org/1999/xlink">
    <!-- Generator: Sketch 55.1 (78136) - https://sketchapp.com -->
    <title>svgs_quotesColor</title>
    <desc>Created with Sketch.</desc>
    <g id="svgs_quotesColor" stroke="none" stroke-width="1" fill="none" fill-rule="evenodd">
        <g fill-rule="nonzero">
            <path d="M96.256663,61.1132129 L115.080192,61.1132129 C116.741465,61.1132129 118.088192,62.4599404 118.088192,64.1212129 L118.088192,68.3418019 C118.088192,70.0030744 116.741465,71.3498019 115.080192,71.3498019 L96.256663,71.3498019 C94.5953905,71.3498019 93.248663,70.0030744 93.248663,68.3418019 L93.248663,64.1212129 C93.248663,62.4599404 94.5953905,61.1132129 96.256663,61.1132129 Z" id="Rectangle-path" fill="#FF700A" transform="translate(105.668428, 66.231507) rotate(180.000000) translate(-105.668428, -66.231507) "/>
            <path d="M16.0551471,81.5878788 C17.8224583,81.5878788 19.2551471,83.0205676 19.2551471,84.7878788 C19.2551471,86.55519 17.8224583,87.9878788 16.0551471,87.9878788 L8.96941176,87.9878788 C4.54803268,87.9878788 0.8,84.7219839 0.8,80.4577201 L0.8,51.5422799 C0.8,47.2780161 4.54803268,44.0121212 8.96941176,44.0121212 L127.030588,44.0121212 C131.451967,44.0121212 135.2,47.2780161 135.2,51.5422799 L135.2,80.4577201 C135.2,84.7219839 131.451967,87.9878788 127.030588,87.9878788 L29.8566176,87.9878788 C28.0893064,87.9878788 26.6566176,86.55519 26.6566176,84.7878788 C26.6566176,83.0205676 28.0893064,81.5878788 29.8566176,81.5878788 L127.030588,81.5878788 C128.09827,81.5878788 128.8,80.9764175 128.8,80.4577201 L128.8,51.5422799 C128.8,51.0235825 128.09827,50.4121212 127.030588,50.4121212 L8.96941176,50.4121212 C7.90173019,50.4121212 7.2,51.0235825 7.2,51.5422799 L7.2,80.4577201 C7.2,80.9764175 7.90173019,81.5878788 8.96941176,81.5878788 L16.0551471,81.5878788 Z" id="Rectangle-11-Copy" fill="#2B2727"/>
            <path d="M54.5843137,69.8086734 C54.5843137,72.3475303 52.8885307,74.7370427 49.8460966,75.3593115 L49.8460966,76.525918 C49.8460966,77.476246 49.0757035,78.246639 48.1253756,78.246639 L48.1253756,78.246639 C47.1750477,78.246639 46.4046546,77.476246 46.4046546,76.525918 L46.4046546,75.3593115 C44.8252489,75.0938102 43.054652,74.0401016 41.0928638,72.1981858 L44.185174,69.7837826 C45.1078794,71.3270094 46.6540345,72.1981858 48.2001896,72.1981858 C49.8959725,72.1981858 50.9932439,71.1278834 50.9932439,69.8833457 C50.9932439,68.3401189 49.122895,67.8920853 47.1777322,67.3444887 C44.7587476,66.6475476 41.8410034,65.5772452 41.8410034,62.0925396 C41.8410034,59.5785735 43.6614763,57.5624224 46.3547787,56.9899351 L46.3547787,56.0597671 C46.3547787,55.1163256 47.1195891,54.3515152 48.0630306,54.3515152 L48.0630306,54.3515152 C49.0064722,54.3515152 49.7712826,55.1163256 49.7712826,56.0597671 L49.7712826,56.9899351 C51.7413834,57.3632964 53.1129726,58.3589265 54.185306,59.6034642 L51.3423757,61.7689598 C50.5942361,60.5742037 49.3972128,59.9021533 47.9757477,59.9021533 C46.4295926,59.9021533 45.3821972,60.7733297 45.3821972,61.9183044 C45.3821972,63.3868589 47.1278562,63.7353294 49.172771,64.3575983 C51.6416315,65.1292116 54.5843137,66.2741863 54.5843137,69.8086734 Z" id="$" fill="#2B2727"/>
            <path d="M8.9632,7.2 C7.98941153,7.2 7.2,7.98941153 7.2,8.9632 L7.2,25.3398303 C7.2,26.3136188 7.98941153,27.1030303 8.9632,27.1030303 L96.9191529,27.1030303 C97.8929414,27.1030303 98.6823529,26.3136188 98.6823529,25.3398303 L98.6823529,8.9632 C98.6823529,7.98941153 97.8929414,7.2 96.9191529,7.2 L8.9632,7.2 Z M8.9632,0.8 L96.9191529,0.8 C101.427564,0.8 105.082353,4.45478913 105.082353,8.9632 L105.082353,25.3398303 C105.082353,29.8482412 101.427564,33.5030303 96.9191529,33.5030303 L8.9632,33.5030303 C4.45478913,33.5030303 0.8,29.8482412 0.8,25.3398303 L0.8,8.9632 C0.8,4.45478913 4.45478913,0.8 8.9632,0.8 Z" id="Rectangle-11" fill="#2B2727"/>
            <path d="M71.7647067,13.5999997 L84.9048721,13.5999997 C86.5661447,13.5999997 87.9128721,14.9467272 87.9128721,16.6079997 L87.9128721,18.012602 C87.9128721,19.6738745 86.5661447,21.020602 84.9048721,21.020602 L71.7647067,21.020602 C70.1034342,21.020602 68.7567067,19.6738745 68.7567067,18.012602 L68.7567067,16.6079997 C68.7567067,14.9467272 70.1034342,13.5999997 71.7647067,13.5999997 Z" id="Rectangle-path-Copy" fill="#FF700A" transform="translate(78.334789, 17.310301) rotate(180.000000) translate(-78.334789, -17.310301) "/>
            <path d="M8.9632,104.89697 C7.98941153,104.89697 7.2,105.686381 7.2,106.66017 L7.2,123.0368 C7.2,124.010588 7.98941153,124.8 8.9632,124.8 L96.9191529,124.8 C97.8929414,124.8 98.6823529,124.010588 98.6823529,123.0368 L98.6823529,106.66017 C98.6823529,105.686381 97.8929414,104.89697 96.9191529,104.89697 L8.9632,104.89697 Z M8.9632,98.4969697 L96.9191529,98.4969697 C101.427564,98.4969697 105.082353,102.151759 105.082353,106.66017 L105.082353,123.0368 C105.082353,127.545211 101.427564,131.2 96.9191529,131.2 L8.9632,131.2 C4.45478913,131.2 0.8,127.545211 0.8,123.0368 L0.8,106.66017 C0.8,102.151759 4.45478913,98.4969697 8.9632,98.4969697 Z" id="Rectangle-11-Copy-2" fill="#2B2727"/>
            <path d="M71.7647067,111.6 L84.9048721,111.6 C86.5661447,111.6 87.9128721,112.946727 87.9128721,114.608 L87.9128721,116.012602 C87.9128721,117.673875 86.5661447,119.020602 84.9048721,119.020602 L71.7647067,119.020602 C70.1034342,119.020602 68.7567067,117.673875 68.7567067,116.012602 L68.7567067,114.608 C68.7567067,112.946727 70.1034342,111.6 71.7647067,111.6 Z" id="Rectangle-path-Copy-2" fill="#FF700A" transform="translate(78.334789, 115.310301) rotate(180.000000) translate(-78.334789, -115.310301) "/>
        </g>
    </g>
</svg>